<svg version="1.1" xmlns="http://www.w3.org/2000/svg" xmlns:xlink="http://www.w3.org/1999/xlink" width="44.27272" height="44.27272" viewBox="0,0,44.27272,44.27272"><g transform="translate(-217.86364,-157.86364)"><g data-paper-data="{&quot;isPaintingLayer&quot;:true}" fill-rule="nonzero" stroke="none" stroke-linecap="butt" stroke-linejoin="miter" stroke-miterlimit="10" stroke-dasharray="" stroke-dashoffset="0" style="mix-blend-mode: normal"><path d="M217.86365,180.00001c0,-12.22558 9.91079,-22.13636 22.13636,-22.13636c12.22558,0 22.13636,9.91079 22.13636,22.13636c0,12.22558 -9.91079,22.13636 -22.13636,22.13636c-12.22558,0 -22.13636,-9.91079 -22.13636,-22.13636z" fill="#5200b3" stroke-width="0"/><path d="M249.65029,199.95456c0,0 0,0.75 -0.75,0.75c-0.75,0 -0.75,-0.75 -0.75,-0.75c0.04354,-5.31196 -2.75584,-10.66384 -8.03345,-11.71911l-0.55196,-0.24643c0,0 -0.35503,-0.17751 -0.41938,-0.53253c-0.69446,0.0188 -1.47577,0.04363 -2.30428,0.05689c-0.18092,0.32801 -0.59357,0.36928 -0.59357,0.36928c-4.14589,0.27423 -6.34894,7.58731 -7.41717,10.83371c-0.01096,0.14729 -0.09557,0.71547 -0.74837,0.71547c-0.75,0 -0.75,-0.75 -0.75,-0.75l0.03849,-0.32808c1.09313,-3.257 2.78801,-8.58691 6.03039,-10.88909c-4.7345,-0.2576 -9.31988,-1.51514 -7.66499,-6.47979c0.34867,-1.04602 1.40913,-2.13108 1.98307,-3.06455c2.24382,-3.52571 4.56858,-6.92362 7.13085,-10.23946c0.87333,-1.13018 1.74211,-2.62975 3.2138,-3.08545c2.2958,-0.71089 4.46527,1.37922 5.7957,2.90322c2.56835,3.84037 5.16239,7.80214 6.91559,12.07801c0.67255,1.64028 1.74201,3.03736 1.96159,4.84055c0,0 0.05132,0.46181 -0.29033,0.69883l0.18614,0.54669c-0.76695,2.84276 -6.10213,2.2861 -9.72705,1.93647c4.41344,2.1403 6.71114,7.22275 6.74491,12.35538zM251.10624,185.59433c0.02833,-0.07623 0.04927,-0.16159 0.06191,-0.25702zM251.08969,185.63585c-0.04304,-0.0696 -0.35309,-0.61136 0.16546,-0.99921c-0.00711,-0.03351 -0.00937,-0.05379 -0.00937,-0.05379c-0.15657,-1.61758 -1.2472,-2.95823 -1.85659,-4.43218c-1.71713,-4.15326 -4.23364,-7.9961 -6.72078,-11.74018c-0.90106,-1.02702 -2.58347,-2.90024 -4.20429,-2.3695c-1.06648,0.34922 -1.79543,1.73933 -2.42257,2.55092c-2.53395,3.27927 -4.83244,6.63763 -7.05096,10.12418c-1.18831,1.92935 -2.34566,3.24102 -1.92154,5.64596c0.13632,0.77298 2.95121,1.04506 3.55796,1.12071c3.30838,0.41249 6.58143,0.44908 9.90963,0.44908c2.63533,0.00141 5.26914,0.18182 7.90909,0.18182c0.90453,0 2.27756,0.38238 2.64395,-0.4778z" fill="#ffffff" stroke-width="0.5"/><path d="M243.57111,180.43733c0.33541,0.67082 -0.33541,1.00623 -0.33541,1.00623l-0.02913,-0.01047c-3.10219,2.65072 -7.89577,2.94784 -10.068,-1.23403c0,0 -0.33541,-0.67082 0.33541,-1.00623c0.67082,-0.33541 1.00623,0.33541 1.00623,0.33541c1.61962,3.42849 5.46596,2.73069 7.75017,0.76597l0.3345,-0.19229c0,0 0.67082,-0.33541 1.00623,0.33541z" fill="#ffffff" stroke-width="0.5"/><path d="M234.24119,175.31819c0,-0.41422 0.33578,-0.75 0.75,-0.75c0.41422,0 0.75,0.33578 0.75,0.75c0,0.41422 -0.33578,0.75 -0.75,0.75c-0.41422,0 -0.75,-0.33578 -0.75,-0.75z" fill="#ffffff" stroke-width="0.5"/><path d="M241.42302,175.50001c0,-0.41422 0.33578,-0.75 0.75,-0.75c0.41422,0 0.75,0.33578 0.75,0.75c0,0.41422 -0.33578,0.75 -0.75,0.75c-0.41422,0 -0.75,-0.33578 -0.75,-0.75z" fill="#ffffff" stroke-width="0.5"/></g></g></svg>