<svg version="1.1" xmlns="http://www.w3.org/2000/svg" xmlns:xlink="http://www.w3.org/1999/xlink" width="44.27272" height="44.27272" viewBox="0,0,44.27272,44.27272"><g transform="translate(-217.86364,-157.86364)"><g data-paper-data="{&quot;isPaintingLayer&quot;:true}" fill-rule="nonzero" stroke="none" stroke-linecap="butt" stroke-linejoin="miter" stroke-miterlimit="10" stroke-dasharray="" stroke-dashoffset="0" style="mix-blend-mode: normal"><path d="M217.86364,180c0,-12.22558 9.91079,-22.13636 22.13636,-22.13636c12.22558,0 22.13636,9.91079 22.13636,22.13636c0,12.22558 -9.91079,22.13636 -22.13636,22.13636c-12.22558,0 -22.13636,-9.91079 -22.13636,-22.13636z" fill="#ff4a00" stroke-width="0"/><path d="M246.29631,175.87616l-0.58593,0.09653c-2.17415,0.23865 -4.53442,-0.01376 -6.08766,-1.69037c-0.26882,-0.29017 -0.59036,-0.55898 -0.78936,-0.84943c-1.238,2.49023 -3.68839,2.54439 -6.38762,2.54439c0,0 -0.14531,0 -0.30801,-0.06396c-2.41853,4.91176 -0.59381,10.95665 4.5191,13.80927c0.76911,0.26461 1.3875,0.20931 2.20198,0.21039l0.77683,-0.08747c0,0 0.34939,-0.03882 0.59634,0.17589c5.0876,-0.1082 7.89534,-6.59506 7.92494,-10.9673c-0.33672,-1.20322 -0.87978,-2.31232 -1.5768,-3.28606c-0.14647,0.08523 -0.28381,0.10812 -0.28381,0.10812zM237.75283,172.12208l0.03695,-0.04096l-0.01487,-0.00743l0.18111,-0.36222c-1.45234,0.19129 -2.90907,0.78885 -4.2645,1.87588c-0.25273,0.29009 -0.48649,0.58816 -0.70155,0.89297c2.10191,0.01781 3.9907,0.0362 4.76286,-2.35824zM239.81457,172.09684c1.53065,1.73472 2.84285,2.69817 5.6841,2.39011c-1.60248,-1.61551 -3.68646,-2.65457 -5.87547,-2.82071zM249.53665,200.88636c-0.75,0 -0.75,-0.75 -0.75,-0.75l0.04775,0.08152c-1.50339,-4.02615 -4.04992,-7.88281 -8.64511,-8.33525c0,0 -0.00088,-0.00009 -0.00259,-0.00029c-0.18827,0.09492 -0.37733,0.09492 -0.37733,0.09492c-3.68791,-0.01612 -7.71506,5.0461 -8.07277,8.51464l-0.10872,0.46271c0,0 -0.1819,0.72761 -0.90951,0.54571c-0.72761,-0.1819 -0.54571,-0.90951 -0.54571,-0.90951l0.0731,-0.26456c0.38572,-3.2831 3.18437,-7.34418 6.5062,-9.04286c-0.22303,-0.0465 -0.45348,-0.10759 -0.69914,-0.1878c-1.76679,-0.97832 -3.19399,-2.28263 -4.25238,-3.78178c0.15725,1.94864 0.25971,4.12778 -0.74018,5.4343c-1.72828,2.25828 -4.57583,0.27773 -5.07395,-1.8127l-0.01786,-0.79906c0,0 0,-0.75 0.75,-0.75c0.75,0 0.75,0.75 0.75,0.75l-0.01786,0.47367c0.24385,1.22308 2.04346,2.46269 2.55419,0.75029c0.5962,-1.99897 0.14549,-4.33616 0.14549,-6.40578c0,0 0,-0.27032 0.16229,-0.48638c-1.41538,-3.90368 -0.75608,-8.43629 2.34193,-11.9646c6.49105,-5.18284 14.99891,-1.09671 16.98915,6.35143c0.00697,1.34758 -0.207,2.82153 -0.62993,4.2723c0.00021,0.00591 0.00021,0.00907 0.00021,0.00907c0,2.13567 -0.60719,5.7183 0.4209,7.677c0.75477,1.43797 2.32393,-0.4287 2.61282,-1.01241l0.41042,-0.62607c0,0 0.41603,-0.62404 1.04006,-0.20801c0.62404,0.41603 0.20801,1.04006 0.20801,1.04006l-0.31685,0.46484c-0.8875,1.75984 -3.61854,3.4643 -5.20536,1.1694c-0.76519,-1.10664 -0.88357,-2.92836 -0.83956,-4.71604c-1.1166,1.80566 -2.62474,3.29585 -4.49112,4.05485c3.68169,1.40662 5.96101,4.92674 7.38564,8.71122l0.04775,0.44516c0,0 0,0.75 -0.75,0.75z" fill="#ffffff" stroke-width="0.5"/><path d="M243.70334,182.60603c0.46554,0.46554 0.11374,0.93109 0.02084,1.03788c-1.72773,4.21357 -8.67928,6.17154 -9.38836,0.11253c0,0 -0.07463,-0.74628 0.67165,-0.82091c0.74628,-0.07463 0.82091,0.67165 0.82091,0.67165c0.34553,4.56913 5.51179,2.12925 6.55148,-0.64326l0.26283,-0.3579c0,0 0.53033,-0.53033 1.06066,0z" fill="#ffffff" stroke-width="0.5"/><path d="M234.3321,177.95455c0,-0.41421 0.33579,-0.75 0.75,-0.75c0.41421,0 0.75,0.33579 0.75,0.75c0,0.41421 -0.33579,0.75 -0.75,0.75c-0.41421,0 -0.75,-0.33579 -0.75,-0.75z" fill="#ffffff" stroke-width="0.5"/><path d="M242.24119,177.86364c0,-0.41421 0.33579,-0.75 0.75,-0.75c0.41421,0 0.75,0.33579 0.75,0.75c0,0.41421 -0.33579,0.75 -0.75,0.75c-0.41421,0 -0.75,-0.33579 -0.75,-0.75z" fill="#ffffff" stroke-width="0.5"/></g></g></svg>