<svg version="1.1" xmlns="http://www.w3.org/2000/svg" xmlns:xlink="http://www.w3.org/1999/xlink" width="44.27273" height="44.27273" viewBox="0,0,44.27273,44.27273"><g transform="translate(-217.86364,-157.86364)"><g data-paper-data="{&quot;isPaintingLayer&quot;:true}" fill-rule="nonzero" stroke="none" stroke-linecap="butt" stroke-linejoin="miter" stroke-miterlimit="10" stroke-dasharray="" stroke-dashoffset="0" style="mix-blend-mode: normal"><path d="M217.86364,180c0,-12.22558 9.91079,-22.13636 22.13636,-22.13636c12.22558,0 22.13636,9.91079 22.13636,22.13636c0,12.22558 -9.91079,22.13636 -22.13636,22.13636c-12.22558,0 -22.13636,-9.91079 -22.13636,-22.13636z" fill="#0050ff" stroke-width="0"/><path d="M251.93267,200.87616c-0.7398,0.1233 -0.86309,-0.6165 -0.86309,-0.6165l-0.08325,-0.50606c-0.70542,-3.17829 -2.62696,-8.54381 -6.52431,-8.87097c0,0 -0.30375,-0.03038 -0.5043,-0.24616c-0.8499,0.44206 -1.77917,0.73585 -2.77082,0.84203c-0.2222,0.22603 -0.55934,0.22603 -0.55934,0.22603h-0.72727c-1.36425,-0.00165 -2.7341,-0.18248 -4.01956,-0.57457c-0.13913,0.12259 -0.28872,0.17245 -0.28872,0.17245c-3.33236,1.05661 -5.14241,5.18366 -5.77446,8.34467l0.01456,0.58019c0,0 0,0.75 -0.75,0.75c-0.75,0 -0.75,-0.75 -0.75,-0.75l0.01456,-0.87436c0.67729,-3.38567 2.49191,-7.26663 5.66078,-8.98374c-1.49484,-0.77959 -2.78023,-1.92601 -3.67187,-3.50494c0,0 -0.0028,-0.00504 -0.00747,-0.01448c-0.00516,-0.00918 -0.00774,-0.01434 -0.00774,-0.01434l-0.41211,-0.85027c-0.38572,-3.16691 0.20474,-6.32526 1.63993,-9.17273c5.04136,-5.95265 13.72864,-7.32209 17.14234,1.1439c1.50012,4.05006 0.00747,8.94975 -3.1465,11.61227c4.02925,1.10457 6.08715,6.17653 6.90657,9.85963l0.09856,0.58485c0,0 0.1233,0.7398 -0.6165,0.86309zM240.35483,190.02273c5.27205,0 8.80849,-6.60853 6.93702,-11.5245c-2.91424,-7.35454 -10.17171,-5.8272 -14.49403,-0.8561c-1.21183,2.44983 -1.70855,5.20067 -1.45098,7.91818l0.30392,0.58272c1.61259,2.95476 5.01767,4.05276 8.19296,4.06148c0.21955,-0.18178 0.5111,-0.18178 0.5111,-0.18178z" fill="#ffffff" stroke-width="0.5"/><path d="M244.3397,182.96967c0.53033,0.53033 0,1.06066 0,1.06066l-0.19172,0.09665c-1.87817,4.82253 -7.69734,3.3758 -10.13073,-0.00923c0,0 -0.43593,-0.6103 0.17437,-1.04623c0.6103,-0.43593 1.04623,0.17437 1.04623,0.17437c1.66947,2.35488 6.17533,4.10248 7.50563,0.3544l0.53555,-0.63062c0,0 0.53033,-0.53033 1.06066,0z" fill="#ffffff" stroke-width="0.5"/><path d="M234.87755,179.31818c0,-0.41421 0.33579,-0.75 0.75,-0.75c0.41421,0 0.75,0.33579 0.75,0.75c0,0.41421 -0.33579,0.75 -0.75,0.75c-0.41421,0 -0.75,-0.33579 -0.75,-0.75z" fill="#ffffff" stroke-width="0.5"/><path d="M241.87755,178.68182c0,-0.41421 0.33579,-0.75 0.75,-0.75c0.41421,0 0.75,0.33579 0.75,0.75c0,0.41421 -0.33579,0.75 -0.75,0.75c-0.41421,0 -0.75,-0.33579 -0.75,-0.75z" fill="#ffffff" stroke-width="0.5"/></g></g></svg>