<svg version="1.1" xmlns="http://www.w3.org/2000/svg" xmlns:xlink="http://www.w3.org/1999/xlink" width="44.27272" height="44.27272" viewBox="0,0,44.27272,44.27272"><g transform="translate(-217.86364,-157.86364)"><g data-paper-data="{&quot;isPaintingLayer&quot;:true}" fill-rule="nonzero" stroke="none" stroke-linecap="butt" stroke-linejoin="miter" stroke-miterlimit="10" stroke-dasharray="" stroke-dashoffset="0" style="mix-blend-mode: normal"><path d="M217.86364,180c0,-12.22558 9.91079,-22.13636 22.13636,-22.13636c12.22558,0 22.13636,9.91079 22.13636,22.13636c0,12.22558 -9.91079,22.13636 -22.13636,22.13636c-12.22558,0 -22.13636,-9.91079 -22.13636,-22.13636z" fill="#ff0000" stroke-width="0"/><path d="M250.65028,200.04545c0,0 0,0.75 -0.75,0.75c-0.75,0 -0.75,-0.75 -0.75,-0.75c0,-3.51334 -1.70868,-7.82305 -4.66691,-9.92201l-0.42549,-0.26568c-0.43172,0.09608 -0.88587,0.16069 -1.36249,0.19086c-0.09279,0.01956 -0.15875,0.01956 -0.15875,0.01956h-0.45455c-1.8053,0 -3.61987,0.0238 -5.27897,-0.585c-3.5238,1.99932 -6.02595,5.85341 -6.80377,9.80027l0.01456,0.39837c0,0 0,0.75 -0.75,0.75c-0.75,0 -0.75,-0.75 -0.75,-0.75l0.01456,-0.69254c0.82444,-4.0699 3.24732,-7.99246 6.72677,-10.31219c-0.05704,-0.04009 -0.1138,-0.08134 -0.17026,-0.12378c-3.71744,-2.79405 -4.20209,-7.93679 -2.09297,-11.8152c4.16601,-5.84798 14.00985,-6.88247 16.89465,0.80404c1.24344,4.54958 -0.09824,9.73218 -4.08576,11.70519c3.06676,2.50346 4.84936,6.95342 4.84936,10.79812zM241.63431,184.70405c-0.38587,0.64312 -1.02899,0.25725 -1.02899,0.25725l-0.40408,-0.24503c-2.32059,-1.16029 -4.57466,-2.50015 -6.96491,-3.50714c-0.10606,2.32638 0.76301,4.65913 2.75197,6.14665c1.79388,1.34162 3.98586,1.2124 6.09381,1.2124h0.02545c0.60323,-0.00089 1.16407,-0.06528 1.68328,-0.18535c0.12261,-0.07687 0.25007,-0.09956 0.36555,-0.09564c4.14302,-1.21353 5.4329,-6.13097 4.30296,-10.28388c-2.42467,-6.47218 -10.75983,-5.26615 -14.19626,-0.46869c-0.36842,0.67297 -0.64163,1.39616 -0.81461,2.14006c2.55764,1.04146 4.95275,2.46453 7.42359,3.69995l0.50501,0.30043c0,0 0.64312,0.38587 0.25725,1.02899z" fill="#ffffff" stroke-width="0.5"/><path d="M243.42301,179.59091c0,-0.41421 0.33579,-0.75 0.75,-0.75c0.41421,0 0.75,0.33579 0.75,0.75c0,0.41421 -0.33579,0.75 -0.75,0.75c-0.41421,0 -0.75,-0.33579 -0.75,-0.75z" fill="#ffffff" stroke-width="0.5"/><path d="M238.24119,175.95455c0,-0.41421 0.33579,-0.75 0.75,-0.75c0.41421,0 0.75,0.33579 0.75,0.75c0,0.41421 -0.33579,0.75 -0.75,0.75c-0.41421,0 -0.75,-0.33579 -0.75,-0.75z" fill="#ffffff" stroke-width="0.5"/></g></g></svg>