<svg version="1.1" xmlns="http://www.w3.org/2000/svg" xmlns:xlink="http://www.w3.org/1999/xlink" width="44.27272" height="44.27272" viewBox="0,0,44.27272,44.27272"><g transform="translate(-217.86369,-157.86369)"><g data-paper-data="{&quot;isPaintingLayer&quot;:true}" fill-rule="nonzero" stroke="none" stroke-linecap="butt" stroke-linejoin="miter" stroke-miterlimit="10" stroke-dasharray="" stroke-dashoffset="0" style="mix-blend-mode: normal"><path d="M217.8637,180.00006c0,-12.22558 9.91079,-22.13636 22.13636,-22.13636c12.22558,0 22.13636,9.91079 22.13636,22.13636c0,12.22558 -9.91079,22.13636 -22.13636,22.13636c-12.22558,0 -22.13636,-9.91079 -22.13636,-22.13636z" fill="#c30082" stroke-width="0"/><path d="M250.60895,200.11031c-0.6103,0.43593 -1.04623,-0.17437 -1.04623,-0.17437l-0.46769,-0.65538c-1.42406,-2.27644 -3.33143,-7.08071 -6.45938,-7.30786c0,0 -0.04338,-0.00482 -0.10806,-0.0226c-0.81659,0.25046 -1.69333,0.3879 -2.6273,0.39083c0,0 -0.35103,0 -0.57279,-0.24016c-1.44821,0.08163 -2.66044,-0.14876 -3.87034,-0.58089c-0.18752,0.09377 -0.37506,0.09377 -0.37506,0.09377c-3.24866,-0.06209 -6.16328,4.69522 -8.06692,6.91992l0.06726,0.05745c0,0 -0.18191,0.72761 -0.90951,0.5457c-0.72761,-0.1819 -0.5457,-0.90951 -0.5457,-0.90951l0.24908,-0.66983c1.91894,-2.23465 4.29573,-5.84676 7.28424,-7.04427c-0.10664,-0.0526 -0.21424,-0.1061 -0.32294,-0.16045c-3.20925,-1.68149 -4.25428,-4.9851 -3.93867,-8.37537c-0.69652,0 -1.39304,0 -2.08956,0h-0.36364c0,0 -0.75,0 -0.75,-0.75c0,-0.75 0.75,-0.75 0.75,-0.75c0.72727,0 1.81818,0 2.54545,0c0,0 0.05287,0 0.13054,0.01404c0.27354,-1.32978 0.73918,-2.63831 1.34814,-3.8323c-0.01275,-0.00842 -0.01959,-0.01355 -0.01959,-0.01355c-0.47855,-0.35923 -0.94722,-0.73226 -1.40173,-1.12147l-0.32554,-0.24217c0,0 -0.6,-0.45 -0.15,-1.05c0.45,-0.6 1.05,-0.15 1.05,-0.15l0.40173,0.30329c0.38963,0.3343 0.79069,0.65557 1.19991,0.96568c0.78899,-1.21334 1.73161,-2.24191 2.76112,-2.95825c0.68376,-0.30548 1.41092,-0.5494 2.16379,-0.73092c-0.00433,-0.51208 -0.02833,-1.02471 -0.0856,-1.53334l-0.00459,-0.17373c0,0 0,-0.75 0.75,-0.75c0.75,0 0.75,0.75 0.75,0.75l-0.00459,0.00808c0.0519,0.47281 0.07926,0.94855 0.09,1.42442c1.27748,-0.16418 2.59321,-0.15903 3.86913,0.01909c0,-0.54447 0,-1.08894 0,-1.63341l0.17009,-0.51722c0,0 0.33541,-0.67082 1.00623,-0.33541c0.67082,0.33541 0.33541,1.00623 0.33541,1.00623l-0.01173,-0.15359c0,0.57576 0,1.15151 0,1.72727c0,0 0,0.08325 -0.02774,0.19427c1.73647,0.44199 3.33346,1.22997 4.57289,2.37413c0.23646,-0.17735 0.47293,-0.35469 0.70938,-0.53204l0.57943,-0.38768c0,0 0.62404,-0.41603 1.04006,0.20801c0.41602,0.62404 -0.20801,1.04006 -0.20801,1.04006l-0.51148,0.3396c-0.20052,0.15039 -0.40104,0.30078 -0.60156,0.45117c0.78517,1.0588 1.31327,2.33612 1.48081,3.83682c0.02185,-0.00162 0.03439,-0.00162 0.03439,-0.00162c0.58469,0.0026 1.17639,-0.03374 1.7464,-0.16396l0.58485,-0.09856c0,0 0.7398,-0.1233 0.8631,0.61649c0.1233,0.73979 -0.6165,0.86309 -0.6165,0.86309l-0.50606,0.08326c-0.67345,0.14622 -1.36862,0.19636 -2.05784,0.19962c-0.04191,1.17182 -0.23341,2.36392 -0.56661,3.51791c0.98582,0.1517 1.44883,0.52692 2.34262,0.97042l0.28583,0.23139c0,0 0.53033,0.53033 0,1.06066c-0.53033,0.53033 -1.06066,0 -1.06066,0l0.10401,0.04959c-0.72858,-0.36669 -1.12486,-0.77609 -1.92923,-0.8345c0,0 -0.10399,-0.01155 -0.22998,-0.06488c-0.9298,2.30115 -2.45208,4.33543 -4.49696,5.58561c2.71114,1.40908 4.27515,4.97081 5.79685,7.40785l0.4414,0.61735c0,0 0.43593,0.6103 -0.17437,1.04623zM241.01282,190.76542c4.92271,-0.69933 7.59646,-6.12117 7.59202,-10.71995c0.02038,-6.882 -8.67451,-8.64527 -13.88094,-6.34708c-3.86128,2.72186 -7.07783,12.58884 -1.21546,15.31263c2.13975,1.06987 3.71478,1.80557 6.13541,1.5609l0.50495,-0.15668c0,0 0.60343,-0.17241 0.86402,0.35018z" fill="#ffffff" stroke-width="0.5"/><path d="M243.21322,185.03149c0.46852,0.58565 -0.11713,1.05417 -0.11713,1.05417l-0.42919,0.34242c-2.65508,2.32069 -5.87447,2.03282 -8.24013,-0.61601c0,0 -0.49388,-0.56443 0.07055,-1.05831c0.56444,-0.49388 1.05831,0.07056 1.05831,0.07056c1.78318,2.09337 4.13286,2.21871 6.1235,0.4749l0.47991,-0.38485c0,0 0.58565,-0.46852 1.05417,0.11713z" fill="#ffffff" stroke-width="0.5"/><path d="M234.60484,179.22729c0,-0.41422 0.33578,-0.75 0.75,-0.75c0.41422,0 0.75,0.33578 0.75,0.75c0,0.41422 -0.33578,0.75 -0.75,0.75c-0.41422,0 -0.75,-0.33578 -0.75,-0.75z" fill="#ffffff" stroke-width="0.5"/><path d="M241.78666,179.68183c0,-0.41422 0.33578,-0.75 0.75,-0.75c0.41422,0 0.75,0.33578 0.75,0.75c0,0.41422 -0.33578,0.75 -0.75,0.75c-0.41422,0 -0.75,-0.33578 -0.75,-0.75z" fill="#ffffff" stroke-width="0.5"/></g></g></svg>