<svg version="1.1" xmlns="http://www.w3.org/2000/svg" xmlns:xlink="http://www.w3.org/1999/xlink" width="44.27272" height="44.27272" viewBox="0,0,44.27272,44.27272"><g transform="translate(-217.86368,-157.86368)"><g data-paper-data="{&quot;isPaintingLayer&quot;:true}" fill-rule="nonzero" stroke="none" stroke-linecap="butt" stroke-linejoin="miter" stroke-miterlimit="10" stroke-dasharray="" stroke-dashoffset="0" style="mix-blend-mode: normal"><path d="M217.86368,180.00005c0,-12.22558 9.91079,-22.13636 22.13636,-22.13636c12.22558,0 22.13636,9.91079 22.13636,22.13636c0,12.22558 -9.91079,22.13636 -22.13636,22.13636c-12.22558,0 -22.13636,-9.91079 -22.13636,-22.13636z" fill="#b39200" stroke-width="0"/><path d="M253.20688,199.22692c-0.636,0.3975 -1.0335,-0.2385 -1.0335,-0.2385l-0.4371,-0.70064c-1.08505,-1.44543 -1.92046,-2.4985 -3.27777,-3.56549c-0.15413,0.17662 -0.31625,0.34908 -0.48667,0.51715l0.0842,0.06015l-0.44873,0.62823c-0.13547,0.19474 -0.36091,0.3222 -0.61611,0.3222c-0.3893,0 -0.70933,-0.29661 -0.74642,-0.67617l-0.08991,-0.80919l0.01381,-0.00153l-0.01725,-0.03982c-0.0024,-1.98617 -0.02977,-3.9736 -0.06264,-5.96196c-3.07606,3.19942 -8.17519,3.04878 -11.50425,0.34853c0.10539,2.6995 -0.03303,5.31647 -0.91518,7.37875c-1.06445,-0.58498 -1.86208,-1.39722 -2.4557,-2.36777c-1.70879,1.09224 -3.07344,2.38169 -4.51032,3.81857l-0.08811,0.15842c0,0 -0.41603,0.62404 -1.04006,0.20801c-0.62404,-0.41603 -0.20801,-1.04006 -0.20801,-1.04006l0.27553,-0.38703c1.55254,-1.55254 3.04095,-2.94023 4.90572,-4.11182c-1.65029,-4.22708 -0.67084,-10.36374 -0.67084,-14.44875v-0.27273c0,-2.43233 0.06467,-5.05335 2.01481,-6.77227c4.06994,-2.88583 16.54922,-4.90774 17.47441,2.27616l0.0971,0.41328c0.0292,0.26415 0.05839,0.5283 0.08759,0.79245c1.05257,5.77505 3.04494,13.57434 -0.1996,18.76207c1.48695,1.16554 2.44969,2.35856 3.62151,3.92236l0.47199,0.75391c0,0 0.3975,0.636 -0.2385,1.0335zM234.64654,187.09703c2.67917,3.07498 7.83572,3.6052 10.5934,0.36942l0.17135,-0.39277c0,0 0.21377,-0.42754 0.64131,-0.42932c-0.04317,-2.50159 -0.08413,-5.00447 -0.08413,-7.508c0,0 0,-0.03544 0.0077,-0.09091c-0.0077,-0.05547 -0.0077,-0.0909 -0.0077,-0.0909l0.00459,-0.1899c-0.16607,-1.61035 -3.9337,-2.24673 -5.42128,-3.73431c-0.29548,-0.29548 -0.79621,-0.73847 -1.124,-1.20138c-1.04517,2.58248 -2.44774,5.02734 -5.4503,5.22638c0.16324,0.24674 0.11981,0.55073 0.11981,0.55073l-0.08337,0.5303c0,2.01179 0.26582,4.39192 0.44387,6.80642c0.11822,0.07364 0.18875,0.15424 0.18875,0.15424zM232.87756,178.31819c0,-0.75 0.75,-0.75 0.75,-0.75c2.93425,0.02927 3.95587,-3.05619 4.84321,-5.42243l0.26658,-0.71088c0.10209,-0.29289 0.3807,-0.50305 0.70839,-0.50305c0.33738,0 0.62273,0.22277 0.71698,0.52924l0.26726,0.80177l-0.06586,0.02195c0.52184,0.81312 1.03834,1.5901 1.83913,2.27932c1.97659,1.70121 4.91919,1.12866 5.26063,4.0349l0.00459,0.35555c0,0 0,0.03544 -0.0077,0.09091c0.0077,0.05547 0.0077,0.0909 0.0077,0.0909c0,4.76004 0.15883,9.52058 0.1788,14.27163c0.35377,-0.37024 0.77488,-0.73307 0.99184,-1.05012c0.6345,-0.92722 0.69914,-2.47409 0.78646,-3.55609c0.37165,-4.60524 -0.54039,-9.32055 -1.35829,-13.82958c-0.03141,-0.28131 -0.06282,-0.56261 -0.09422,-0.84391l-0.0731,-0.26456c0,0 -0.00454,-0.01816 -0.00931,-0.04946c-0.00642,-0.031 -0.00849,-0.04961 -0.00849,-0.04961c-0.22207,-2.25505 -2.51886,-3.08174 -4.53208,-3.33895c-3.52578,-0.45046 -7.55971,-0.1159 -10.53277,2.02839c-1.55678,1.2774 -1.43974,3.76412 -1.43974,5.59137v0.27273c0,4.0178 -0.23103,8.09832 0.26726,12.09145c0.09555,0.76574 0.09938,2.72342 0.59727,3.3877c0.15535,0.20726 0.37174,0.32063 0.56808,0.42086c-0.2773,-1.09998 -0.11425,-2.73899 -0.11443,-3.62729c-0.00073,-3.48319 -0.18182,-6.96595 -0.18182,-10.45454l0.09845,-0.74243c0,0 0.06179,-0.43251 0.42115,-0.59015c-0.09133,-0.10988 -0.15596,-0.26542 -0.15596,-0.4856z" fill="#ffffff" stroke-width="0.5"/><path d="M235.33211,180.04545c0,-0.41421 0.33579,-0.75 0.75,-0.75c0.41421,0 0.75,0.33579 0.75,0.75c0,0.41421 -0.33579,0.75 -0.75,0.75c-0.41421,0 -0.75,-0.33579 -0.75,-0.75z" fill="#ffffff" stroke-width="0.5"/><path d="M242.60483,179.86365c0,-0.41421 0.33579,-0.75 0.75,-0.75c0.41421,0 0.75,0.33579 0.75,0.75c0,0.41421 -0.33579,0.75 -0.75,0.75c-0.41421,0 -0.75,-0.33579 -0.75,-0.75z" fill="#ffffff" stroke-width="0.5"/><path d="M243.2488,184.06058c0.53033,0.53033 0,1.06066 0,1.06066l-0.07615,0.04899c-1.63849,2.5705 -4.99454,2.87546 -6.87236,0.41614c0,0 -0.45,-0.6 0.15,-1.05c0.6,-0.45 1.05,0.15 1.05,0.15c1.1983,1.63525 3.36544,1.38824 4.40036,-0.31114l0.28749,-0.31465c0,0 0.53033,-0.53033 1.06066,0z" fill="#ffffff" stroke-width="0.5"/></g></g></svg>