<svg version="1.1" xmlns="http://www.w3.org/2000/svg" xmlns:xlink="http://www.w3.org/1999/xlink" width="44.27272" height="44.27272" viewBox="0,0,44.27272,44.27272"><g transform="translate(-217.86364,-157.86364)"><g data-paper-data="{&quot;isPaintingLayer&quot;:true}" fill-rule="nonzero" stroke="none" stroke-linecap="butt" stroke-linejoin="miter" stroke-miterlimit="10" stroke-dasharray="" stroke-dashoffset="0" style="mix-blend-mode: normal"><path d="M217.86364,180c0,-12.22558 9.91079,-22.13636 22.13636,-22.13636c12.22558,0 22.13636,9.91079 22.13636,22.13636c0,12.22558 -9.91079,22.13636 -22.13636,22.13636c-12.22558,0 -22.13636,-9.91079 -22.13636,-22.13636z" fill="#4fb300" stroke-width="0"/><path d="M250.15136,199.55991c0.06861,0.03702 0.64458,0.37127 0.32883,1.00277c-0.33541,0.67082 -1.00623,0.33541 -1.00623,0.33541l-0.48241,-0.36423c-2.72662,-4.37179 -5.38582,-8.34636 -8.75163,-12.27304c0,0 -0.04009,-0.04678 -0.08389,-0.12501c-0.74105,-0.05223 -1.48807,-0.07905 -2.23813,-0.08943c-0.08605,0.37572 -0.48859,0.5221 -0.48859,0.5221c-4.17965,1.4939 -7.44676,6.25056 -9.71122,9.87447l-0.12146,0.33559c0,0 -0.27854,0.69636 -0.9749,0.41781c-0.69636,-0.27854 -0.41781,-0.9749 -0.41781,-0.9749l0.24218,-0.5735c2.11658,-3.38583 4.96515,-7.43534 8.57734,-9.57925c-1.53727,0.03486 -3.0715,0.09039 -4.57771,0.09039c-0.26047,0 -0.43048,-0.09046 -0.54145,-0.20855c-0.20855,-0.22193 -0.20855,-0.54145 -0.20855,-0.54145c0,-6.15152 0,-12.57576 0,-18.72727c0,0 0,-0.31952 0.20855,-0.54145c0.11097,-0.11809 0.28098,-0.20855 0.54145,-0.20855c0.03423,0 0.0669,0.00156 0.09808,0.00454l0.00091,0.00004c3.89463,-0.4275 7.84238,0.15143 11.73622,0.26833c0.83155,0.02497 4.20299,-0.50599 4.8221,-0.01202c0.51694,0.41246 0.27451,2.6834 0.27451,3.30728c-0.00281,4.20596 0.18182,8.42168 0.18182,12.63636c0,1.16869 0.46574,3.10179 -0.71934,3.91072c-0.82719,0.56464 -3.21681,0.27601 -4.6874,0.15594c3.00995,3.63368 5.47667,7.3374 7.99873,11.3569zM241.35483,186.65909c1.21811,0 3.59043,0.4782 4.69661,0.11201c0.15912,-0.05267 0.00793,-3.70838 0.00793,-3.99838c0,-3.76149 -0.17946,-7.51914 -0.18182,-11.27273c0,-0.63636 -0.14808,-1.2902 0,-1.90909c0.00055,-0.0023 0.00121,-0.00464 0.00198,-0.00701c-0.8615,0.49633 -2.76573,0.14642 -3.63265,0.12045c-3.65943,-0.10963 -7.38588,-0.65808 -11.05115,-0.32635c0,5.75906 0,11.51811 0,17.27717c3.27046,-0.03272 6.64023,-0.2517 9.88848,0.05415c0.14692,-0.05023 0.27061,-0.05023 0.27061,-0.05023z" fill="#ffffff" stroke-width="0.5"/><path d="M243.52152,182.15149c0.53033,0.53033 0,1.06066 0,1.06066l-0.49678,0.49366c-2.6486,2.2426 -7.47564,2.00915 -9.55294,-0.86079c0,0 -0.43593,-0.6103 0.17437,-1.04623c0.6103,-0.43593 1.04623,0.17437 1.04623,0.17437c1.52369,2.1693 5.41078,2.28679 7.35615,0.59376l0.41231,-0.41543c0,0 0.53033,-0.53033 1.06066,0z" fill="#ffffff" stroke-width="0.5"/><path d="M233.60483,175.13636c0,-0.41421 0.33579,-0.75 0.75,-0.75c0.41421,0 0.75,0.33579 0.75,0.75c0,0.41421 -0.33579,0.75 -0.75,0.75c-0.41421,0 -0.75,-0.33579 -0.75,-0.75z" fill="#ffffff" stroke-width="0.5"/><path d="M241.87755,175.13636c0,-0.41421 0.33579,-0.75 0.75,-0.75c0.41421,0 0.75,0.33579 0.75,0.75c0,0.41421 -0.33579,0.75 -0.75,0.75c-0.41421,0 -0.75,-0.33579 -0.75,-0.75z" fill="#ffffff" stroke-width="0.5"/></g></g></svg>