<svg version="1.1" xmlns="http://www.w3.org/2000/svg" xmlns:xlink="http://www.w3.org/1999/xlink" width="44.27272" height="44.27272" viewBox="0,0,44.27272,44.27272"><g transform="translate(-217.86364,-157.86364)"><g data-paper-data="{&quot;isPaintingLayer&quot;:true}" fill-rule="nonzero" stroke="none" stroke-linecap="butt" stroke-linejoin="miter" stroke-miterlimit="10" stroke-dasharray="" stroke-dashoffset="0" style="mix-blend-mode: normal"><path d="M217.86364,180c0,-12.22558 9.91079,-22.13636 22.13636,-22.13636c12.22558,0 22.13636,9.91079 22.13636,22.13636c0,12.22558 -9.91079,22.13636 -22.13636,22.13636c-12.22558,0 -22.13636,-9.91079 -22.13636,-22.13636z" fill="#b30c00" stroke-width="0"/><path d="M249.99127,200.86397c-0.72761,0.1819 -0.90951,-0.54571 -0.90951,-0.54571l-0.18635,-0.74648c-0.92708,-4.17185 -3.92798,-9.04906 -8.6315,-9.04906c0,0 -0.12499,0 -0.27293,-0.05103c-0.96584,0.43775 -1.9192,0.47774 -2.84632,0.22784c-0.2202,0.18683 -0.51712,0.18683 -0.51712,0.18683c-4.20035,-0.07408 -6.23653,6.25507 -7.38866,9.33152l-0.08164,0.24656c0,0 -0.23717,0.71151 -0.94868,0.47434c-0.71151,-0.23717 -0.47434,-0.94868 -0.47434,-0.94868l0.10017,-0.2989c1.28653,-3.42643 3.23949,-8.83773 7.19268,-10.0562c-3.37188,-2.44667 -6.19792,-7.92808 -7.6982,-10.32854c-1.17815,-2.63821 -3.29541,-7.5925 -0.3447,-9.94307c2.13455,-1.70041 6.80406,-1.02931 9.39647,-1.24692c3.75136,-0.34105 7.73883,-0.4163 11.49382,-0.09091c1.27602,0.11058 3.01009,0.03263 3.89348,1.19959c0.97361,1.28614 0.30413,3.48929 -0.14488,4.83868c-1.22404,5.48257 -5.8954,11.19264 -9.79263,15.11176c4.56255,0.9066 7.55511,5.68717 8.52925,10.0708l0.17728,0.70807c0,0 0.1819,0.72761 -0.54571,0.90951zM240.78102,188.10363c3.71509,-3.73782 8.24036,-9.21245 9.39647,-14.44019c0.25735,-0.77068 1.0133,-2.76021 0.40057,-3.52495c-0.67608,-0.84381 -2.8832,-0.66124 -3.80268,-0.70744c-3.37719,-0.16968 -6.89977,-0.12611 -10.26456,0.17976c-4.77662,0.39531 -10.72992,-0.77156 -9.15384,5.9875c0.24371,1.04517 0.86646,2.03168 1.29651,3.00432c2.06415,3.30264 4.05769,6.82748 6.93819,9.5289c1.1126,1.04343 2.989,1.67224 4.30068,0.68712c0.20358,-0.17482 0.40716,-0.34963 0.61073,-0.52445z" fill="#ffffff" stroke-width="0.5"/><path d="M242.61243,181.42422c0.53033,0.53033 0,1.06066 0,1.06066l-0.27273,0.27273c-2.65657,2.64033 -7.29346,2.65122 -9.11024,-0.92219c0,0 -0.33541,-0.67082 0.33541,-1.00623c0.67082,-0.33541 1.00623,0.33541 1.00623,0.33541c1.30768,2.67186 4.8027,2.45137 6.70794,0.53235l0.27273,-0.27273c0,0 0.53033,-0.53033 1.06066,0z" fill="#ffffff" stroke-width="0.5"/><path d="M233.3321,175.31818c0,-0.41421 0.33579,-0.75 0.75,-0.75c0.41421,0 0.75,0.33579 0.75,0.75c0,0.41421 -0.33579,0.75 -0.75,0.75c-0.41421,0 -0.75,-0.33579 -0.75,-0.75z" fill="#ffffff" stroke-width="0.5"/><path d="M241.15028,175.5c0,-0.41421 0.33579,-0.75 0.75,-0.75c0.41421,0 0.75,0.33579 0.75,0.75c0,0.41421 -0.33579,0.75 -0.75,0.75c-0.41421,0 -0.75,-0.33579 -0.75,-0.75z" fill="#ffffff" stroke-width="0.5"/></g></g></svg>